<svg width="1342" height="1268" viewBox="0 0 1342 1268" fill="none" xmlns="http://www.w3.org/2000/svg">
<path d="M1103 131.001H968.999V108.001L487.499 114.001L457.499 97.501C457.499 97.501 459.499 115.499 431.499 135C462.394 213.389 415.967 266.063 407.305 275.51C406.574 276.306 406.116 276.806 405.999 277.001C404.499 279.501 358.999 309.501 358.999 309.501C358.999 309.501 350.499 305.5 308.499 309.501C266.499 313.501 255.999 250 264.999 295C274 340 161 354 161 354C161 354 159 357.499 159.5 357C160 356.501 159.999 360.001 161.999 360.001C163.999 360.001 161.999 374.001 161.999 374.001H221.999V782.001H240.999V1018H1116V782.001H1154V360.001H1181V208.001H1154V184.001H1103V131.001Z" fill="#D9D9D9"/>
<path d="M726.933 68.4274C726.533 68.9607 624.133 70.9607 517.867 72.694C476.667 73.3607 463.2 74.0274 461.733 75.3607C460.533 76.2941 459.333 79.2274 458.933 82.0274C456.667 96.4274 455.6 100.961 452 108.294C449.867 112.694 444.533 119.894 440.267 124.294C436 128.694 431.867 132.961 431.2 133.894C430.267 134.961 431.733 138.294 436.267 145.227C443.067 155.361 445.067 159.227 450 171.627C456.533 187.627 458.4 198.427 458.267 218.294C458.267 236.694 457.067 248.961 455.2 250.961C454.533 251.627 454 253.494 454 255.227C454 256.961 453.467 259.361 452.8 260.694C452.133 261.894 448.667 268.827 445.2 276.161C441.733 283.361 436.8 292.027 434.267 295.494C428 304.027 414.267 317.894 408.667 321.627C402.667 325.627 396.133 331.494 396.8 332.161C398 333.361 416.533 324.294 427.333 317.227C440.533 308.561 457.867 291.894 465.867 280.027C477.733 262.294 484.8 245.094 490.267 220.561C492.8 209.094 493.333 203.094 493.333 182.294C493.333 168.694 492.933 153.361 492.4 148.027L491.333 138.561L497.733 137.094C526.133 130.427 578.4 123.761 635.333 119.361C665.2 117.094 805.6 116.961 834.667 119.361C881.867 123.094 917.6 127.361 947.333 132.827C968.667 136.827 976.933 138.694 1003.33 145.627C1027.6 152.027 1065.2 166.427 1086.27 177.227C1131.33 200.294 1163.87 233.361 1173.2 265.627C1178.67 284.294 1179.87 293.627 1178.13 302.161C1173.33 324.161 1171.73 327.627 1163.07 334.027C1156.27 339.094 1141.87 354.027 1140.8 357.361C1140.53 358.294 1138.13 361.494 1135.6 364.694C1133.07 367.894 1129.6 372.961 1128 376.027C1126.4 379.094 1123.87 383.894 1122.27 386.694C1120.67 389.494 1119.33 392.827 1119.33 394.294C1119.33 395.627 1118.8 397.227 1118 397.627C1117.33 398.027 1116.67 399.894 1116.67 401.627C1116.67 403.361 1116.13 405.227 1115.33 405.627C1114.67 406.027 1114 408.161 1114 410.161C1114 412.161 1113.47 414.294 1112.8 415.094C1111.2 416.694 1110.27 423.894 1108 450.961C1106.67 467.494 1106.13 502.694 1106.13 581.627C1106 690.561 1106.4 711.227 1109.2 715.094C1112.4 719.361 1143.6 722.827 1151.87 719.627L1155.2 718.427L1155.73 578.027L1156.13 437.627L1159.07 426.294C1165.07 403.761 1176.67 384.961 1193.33 371.094C1214.4 353.494 1224.27 331.627 1225.6 299.761C1227.47 261.094 1215.07 227.227 1186.53 192.961C1164 165.761 1133.73 144.827 1086 123.227C1079.33 120.294 1050.53 110.427 1039.73 107.494C1037.33 106.827 1033.33 105.761 1031.07 105.094C1013.47 100.161 1010.4 99.3607 979.333 92.8274C967.333 90.1607 950.133 87.0941 936 84.9607C911.867 81.3607 889.2 78.2941 867.333 75.494C838.133 71.894 728.933 66.4274 726.933 68.4274Z" fill="black"/>
<path d="M398.933 281.094C390.533 287.761 377.2 295.627 374.133 295.627C372.933 295.627 371.333 296.161 370.667 296.694C369.867 297.361 366.667 298.561 363.333 299.494C360 300.561 355.6 301.761 353.467 302.427C348.4 304.027 324.4 304.027 320.4 302.427C318.667 301.761 314.667 300.561 311.333 299.627C297.333 295.761 288.8 292.161 277.067 285.494C270.267 281.494 263.867 278.294 262.667 278.294C261.6 278.294 260.133 280.561 259.333 283.894C258.533 287.094 257.2 291.494 256.533 293.761C255.867 296.027 255.333 298.561 255.333 299.361C255.333 302.561 249.467 313.761 245.067 318.961C236.133 329.627 230.667 334.561 225.067 337.094C217.333 340.561 216.4 342.694 222.933 341.627C236.4 339.227 251.467 328.827 261.2 315.094L267.333 306.561L278.4 310.294C296.533 316.427 302.533 317.227 323.333 316.694C340.8 316.294 343.733 315.761 354.4 312.027C369.733 306.561 385.333 297.094 397.2 286.161C407.733 276.161 408.8 273.227 398.933 281.094Z" fill="black"/>
<path d="M274.4 345.494C272.533 346.827 268.933 349.494 266.4 351.361C260.667 356.027 244.4 364.561 241.467 364.561C240.267 364.561 238.667 365.094 238 365.761C237.2 366.561 230.133 367.494 222 367.894C202 369.094 190.667 366.961 172.133 358.694L161.2 353.627L152.267 355.761C147.333 356.827 141.333 358.161 139.067 358.561C136.667 359.094 134.667 359.761 134.667 360.161C134.667 360.427 141.467 367.494 149.733 375.627C158 383.894 166 392.961 167.467 395.894C168.933 398.827 170.8 402.427 171.6 403.894C175.2 410.694 178.4 420.427 182.133 435.894C182.667 438.027 183.6 556.827 184 699.894C184.667 893.761 185.333 961.894 186.533 967.894C189.2 981.494 196.533 1000.83 202 1009.23C214.4 1028.03 232.667 1042.16 254.267 1049.76C275.2 1057.09 271.6 1056.96 412.667 1057.49C512.267 1057.89 543.467 1058.43 544.267 1059.63C544.8 1060.56 545.333 1097.49 545.333 1141.76C545.333 1220.29 545.333 1222.29 548 1227.09C549.6 1229.76 553.067 1233.36 555.733 1235.23L560.667 1238.56H597.333C638.4 1238.56 639.067 1238.43 646.267 1228.96C649.6 1224.69 650 1222.96 650 1214.69C650 1203.23 647.2 1198.29 638 1194.03C632.933 1191.63 629.6 1191.23 615.2 1191.23C606 1191.23 597.333 1190.56 595.867 1189.89C593.467 1188.56 593.333 1186.43 593.333 1123.23V1057.89H697.867C792 1057.89 802.4 1058.16 803.2 1060.03C803.6 1061.23 804 1097.89 804 1141.76V1221.36L807.867 1227.49C814.667 1238.16 815.867 1238.56 853.6 1238.96C875.6 1239.23 888.267 1238.83 892.133 1237.89C902 1235.23 910.667 1223.89 910.667 1213.63C910.667 1209.23 905.467 1199.49 901.733 1196.96C894.4 1192.03 890.8 1191.23 873.467 1191.23C862 1191.23 855.733 1190.69 854.267 1189.49C852.133 1188.03 852 1182.83 852.267 1123.23L852.667 1058.56L952.667 1057.76C1047.2 1057.09 1053.33 1056.83 1064.67 1054.29C1087.33 1049.09 1106.67 1039.23 1119.87 1025.89C1129.2 1016.56 1132.27 1012.16 1137.73 1001.23C1150.4 975.761 1152 961.894 1152 873.894V804.561L1160.53 797.894C1178.8 783.627 1196.13 756.961 1194.4 745.894L1194 743.094L1191.07 745.761C1187.07 749.494 1170.27 757.894 1166.8 757.894C1165.33 757.894 1163.87 758.427 1163.47 759.094C1163.07 759.761 1159.6 760.561 1155.73 760.961C1151.87 761.361 1145.73 762.161 1142.13 762.694C1132.8 764.027 1093.33 758.427 1079.87 753.761C1075.87 752.427 1071.2 751.227 1069.6 751.227C1068.13 751.227 1066.4 750.561 1066 749.894C1065.6 749.094 1063.87 748.561 1062.13 748.561C1060.53 748.561 1058.67 748.027 1058 747.494C1057.2 746.961 1054.27 745.627 1051.33 744.694C1037.87 740.294 1004.13 724.294 980 710.961C949.333 694.027 924.667 684.027 898.667 678.027C868 670.827 837.067 670.294 815.733 676.427C803.467 680.027 800.4 680.827 796 681.761C790 683.227 779.333 687.494 772.533 691.227C761.067 697.761 742.933 711.361 738.133 717.094C731.733 724.961 728.8 724.961 721.867 717.494C711.067 705.494 686.4 689.627 668.667 683.094C661.733 680.561 660.4 680.161 656 679.227C653.467 678.561 647.733 677.094 643.333 675.894C627.867 671.627 584.4 671.227 574.933 675.227C573.2 676.027 570.4 676.561 568.667 676.561C566.933 676.561 565.2 677.094 564.8 677.761C564.4 678.427 561.6 679.361 558.667 679.761C555.733 680.161 550.933 680.961 548 681.361C545.067 681.761 542.267 682.694 541.867 683.361C541.467 684.027 539.733 684.561 538 684.561C536.267 684.561 534.533 685.094 534 685.761C533.6 686.427 531.333 687.494 529.067 688.027C526.667 688.427 523.867 689.361 522.667 689.894C521.6 690.427 518 692.161 514.933 693.761C511.733 695.227 508.267 696.561 507.2 696.561C506.133 696.561 505.333 696.961 505.333 697.627C505.333 698.161 503.333 699.361 501.067 700.294C494.8 702.827 487.2 706.561 478 711.627C445.067 730.027 446.667 729.227 419.333 739.894C410.533 743.361 401.867 746.827 400 747.494C394 750.027 391.333 750.961 385.333 752.561C382 753.494 376.667 754.961 373.333 756.027C367.467 757.761 362.933 758.294 358.4 758.027C356.133 757.894 356 749.761 356 608.161C355.867 525.894 355.333 452.427 354.667 444.961C352.533 421.361 348 403.361 339.467 385.227C334.267 374.294 323.333 357.361 318.533 353.094C314.667 349.627 307.733 347.227 301.733 347.227C299.2 347.227 296 346.694 294.667 345.894C293.333 345.227 289.067 344.294 285.2 343.894C279.6 343.227 277.2 343.627 274.4 345.494ZM266.667 751.227C266.667 753.627 270.133 763.761 272.267 767.761C273.067 769.361 275.867 773.227 278.533 776.561C281.2 779.761 284.267 783.627 285.333 785.227C289.6 790.961 297.733 798.161 306.667 803.894C334 821.761 365.6 831.627 416.667 838.161C433.6 840.294 509.733 840.294 530 838.161C562 834.694 570.8 833.627 589.333 831.094C608.133 828.427 626.133 825.494 649.333 821.227C662.8 818.827 664.533 818.427 701.2 810.561L729.733 804.294L741.2 807.094C769.733 813.761 812.533 822.161 850 828.427C863.867 830.694 898.933 835.094 928.667 838.027C953.333 840.561 1027.73 840.161 1046.67 837.494C1069.73 834.161 1076.13 832.961 1089.33 829.761C1101.2 826.827 1101.47 826.827 1103.47 829.361C1104.93 831.227 1105.2 833.494 1104.53 837.894C1104 841.227 1103.47 868.827 1103.33 899.227C1102.93 954.694 1102.8 958.027 1098 971.894C1093.47 985.227 1082.53 996.827 1069.6 1002.29C1064.93 1004.29 1060 1005.89 1058.53 1005.89C1057.07 1005.89 1054.67 1006.56 1053.2 1007.23C1049.6 1009.23 413.6 1009.09 406.133 1007.09C382 1000.96 371.333 993.627 364 978.427C357.467 965.227 356.933 960.827 356.133 914.427C355.333 867.761 355.2 867.094 348.933 865.094C335.333 860.961 312.8 847.094 300.8 835.494C285.467 820.694 269.333 792.961 265.333 774.561C264.4 770.161 263.2 764.427 262.533 761.894C261.867 759.361 261.333 754.694 261.333 751.494C261.333 746.161 261.467 746.027 264 747.494C265.467 748.427 266.667 750.161 266.667 751.227Z" fill="black"/>
<path d="M860.533 392.427C854.666 394.161 842 403.761 842 406.427C842 407.227 840.933 408.961 839.466 410.427C838.133 411.894 835.733 415.894 834 419.361C832.4 422.827 830.533 426.694 829.866 427.894C829.2 429.227 828.666 431.361 828.666 432.694C828.666 434.027 828.133 435.627 827.466 436.294C826.8 437.094 825.866 440.561 825.333 444.294C823.866 454.961 824.133 495.761 825.733 502.294C826.533 505.627 827.6 510.027 828 512.294C829.466 518.827 836.533 533.094 841.866 540.294C851.733 553.361 867.866 558.161 880.266 551.761C890.933 546.427 901.733 531.094 907.866 512.561C910.666 504.161 914 481.761 914 471.227C914 456.427 909.866 436.027 904.4 423.627C896.133 404.961 888.666 397.227 874.8 392.561C867.2 389.894 868.4 389.894 860.533 392.427Z" fill="black"/>
<path d="M596.667 393.627C594.8 394.694 592.134 396.161 590.667 396.827C583.467 400.427 573.867 413.761 568.4 427.627C559.6 449.761 559.067 488.961 567.067 516.294C571.334 530.561 583.067 546.427 593.334 551.494C611.067 560.294 628.667 550.694 640.667 525.627C649.2 507.761 650.667 499.761 650.667 472.294C650.667 445.494 648.8 435.761 640.267 418.427C634.8 407.361 623.334 395.494 615.867 393.227C608.534 391.094 600.8 391.227 596.667 393.627Z" fill="black"/>
<path d="M1106.5 668H1155.5V774H1106.5V668Z" fill="black"/>
</svg>
